HIERARCHY
ROOT hip
{
  OFFSET -103.335 82.6317 55.9145
  CHANNELS 6 Xposition Yposition Zposition Zrotation Xrotation Yrotation
  JOINT abdomen
  {
    OFFSET 0 20.6881 -0.73152
    CHANNELS 3 Zrotation Xrotation Yrotation
    JOINT chest
    {
      OFFSET 0 11.7043 -0.48768
      CHANNELS 3 Zrotation Xrotation Yrotation
      JOINT neck
      {
        OFFSET 0 22.1894 -2.19456
        CHANNELS 3 Zrotation Xrotation Yrotation
        JOINT head
        {
          OFFSET -0.24384 7.07133 1.2192
          CHANNELS 3 Zrotation Xrotation Yrotation
          JOINT leftEye
          {
            OFFSET 4.14528 8.04674 8.04672
            CHANNELS 3 Zrotation Xrotation Yrotation
            End Site
            {
              OFFSET 1 0 0
            }
          }
          JOINT rightEye
          {
            OFFSET -3.6576 8.04674 8.04672
            CHANNELS 3 Zrotation Xrotation Yrotation
            End Site
            {
              OFFSET 1 0 0
            }
          }
        }
      }
      JOINT rCollar
      {
        OFFSET -2.68224 19.2634 -4.8768
        CHANNELS 3 Zrotation Xrotation Yrotation
        JOINT rShldr
        {
          OFFSET -8.77824 -1.95073 1.46304
          CHANNELS 3 Zrotation Xrotation Yrotation
          JOINT rForeArm
          {
            OFFSET -28.1742 -1.7115 0.48768
            CHANNELS 3 Zrotation Xrotation Yrotation
            JOINT rHand
            {
              OFFSET -22.5879 0.773209 7.07136
              CHANNELS 3 Zrotation Xrotation Yrotation
              JOINT rThumb1
              {
                OFFSET -1.2192 -0.487915 3.41376
                CHANNELS 3 Zrotation Xrotation Yrotation
                JOINT rThumb2
                {
                  OFFSET -3.37035 -0.52449 3.41376
                  CHANNELS 3 Zrotation Xrotation Yrotation
                  End Site
                  {
                    OFFSET -1.78271 -1.18214 1.43049
                  }
                }
              }
              JOINT rIndex1
              {
                OFFSET -7.75947 0.938293 5.60832
                CHANNELS 3 Zrotation Xrotation Yrotation
                JOINT rIndex2
                {
                  OFFSET -2.54057 -0.884171 1.56538
                  CHANNELS 3 Zrotation Xrotation Yrotation
                  End Site
                  {
                    OFFSET -1.62519 -0.234802 1.16502
                  }
                }
              }
              JOINT rMid1
              {
                OFFSET -8.24714 1.18213 3.41376
                CHANNELS 3 Zrotation Xrotation Yrotation
                JOINT rMid2
                {
                  OFFSET -3.10165 -0.590103 1.0647
                  CHANNELS 3 Zrotation Xrotation Yrotation
                  End Site
                  {
                    OFFSET -2.48547 -0.328903 0.83742
                  }
                }
              }
              JOINT rRing1
              {
                OFFSET -8.82822 0.546677 1.51678
                CHANNELS 3 Zrotation Xrotation Yrotation
                JOINT rRing2
                {
                  OFFSET -2.60934 -0.819778 -0.0198488
                  CHANNELS 3 Zrotation Xrotation Yrotation
                  End Site
                  {
                    OFFSET -2.33842 -0.294052 0.168128
                  }
                }
              }
              JOINT rPinky1
              {
                OFFSET -8.27202 -0.0477905 -0.4584
                CHANNELS 3 Zrotation Xrotation Yrotation
                JOINT rPinky2
                {
                  OFFSET -1.82734 -0.647385 -0.700984
                  CHANNELS 3 Zrotation Xrotation Yrotation
                  End Site
                  {
                    OFFSET -1.69225 -0.51767 -0.607171
                  }
                }
              }
            }
          }
        }
      }
      JOINT lCollar
      {
        OFFSET 2.68224 19.2634 -4.8768
        CHANNELS 3 Zrotation Xrotation Yrotation
        JOINT lShldr
        {
          OFFSET 8.77824 -1.95073 1.46304
          CHANNELS 3 Zrotation Xrotation Yrotation
          JOINT lForeArm
          {
            OFFSET 28.1742 -1.7115 0.48768
            CHANNELS 3 Zrotation Xrotation Yrotation
            JOINT lHand
            {
              OFFSET 22.5879 0.773209 7.07136
              CHANNELS 3 Zrotation Xrotation Yrotation
              JOINT lThumb1
              {
                OFFSET 1.2192 -0.487915 3.41376
                CHANNELS 3 Zrotation Xrotation Yrotation
                JOINT lThumb2
                {
                  OFFSET 3.37035 -0.52449 3.41376
                  CHANNELS 3 Zrotation Xrotation Yrotation
                  End Site
                  {
                    OFFSET 1.78271 -1.18214 1.43049
                  }
                }
              }
              JOINT lIndex1
              {
                OFFSET 7.75947 0.938293 5.60832
                CHANNELS 3 Zrotation Xrotation Yrotation
                JOINT lIndex2
                {
                  OFFSET 2.54057 -0.884171 1.56538
                  CHANNELS 3 Zrotation Xrotation Yrotation
                  End Site
                  {
                    OFFSET 1.62519 -0.234802 1.16502
                  }
                }
              }
              JOINT lMid1
              {
                OFFSET 8.24714 1.18213 3.41376
                CHANNELS 3 Zrotation Xrotation Yrotation
                JOINT lMid2
                {
                  OFFSET 3.10165 -0.590103 1.0647
                  CHANNELS 3 Zrotation Xrotation Yrotation
                  End Site
                  {
                    OFFSET 2.48547 -0.328903 0.83742
                  }
                }
              }
              JOINT lRing1
              {
                OFFSET 8.82822 0.546677 1.51678
                CHANNELS 3 Zrotation Xrotation Yrotation
                JOINT lRing2
                {
                  OFFSET 2.60934 -0.819778 -0.0198488
                  CHANNELS 3 Zrotation Xrotation Yrotation
                  End Site
                  {
                    OFFSET 2.33842 -0.294052 0.168128
                  }
                }
              }
              JOINT lPinky1
              {
                OFFSET 8.27202 -0.0477905 -0.4584
                CHANNELS 3 Zrotation Xrotation Yrotation
                JOINT lPinky2
                {
                  OFFSET 1.82734 -0.647385 -0.700984
                  CHANNELS 3 Zrotation Xrotation Yrotation
                  End Site
                  {
                    OFFSET 1.69225 -0.51767 -0.607171
                  }
                }
              }
            }
          }
        }
      }
    }
  }
  JOINT rButtock
  {
    OFFSET -8.77824 4.35084 1.2192
    CHANNELS 3 Zrotation Xrotation Yrotation
    JOINT rThigh
    {
      OFFSET 0 -1.70687 -2.19456
      CHANNELS 3 Zrotation Xrotation Yrotation
      JOINT rShin
      {
        OFFSET 0 -36.8199 0.73152
        CHANNELS 3 Zrotation Xrotation Yrotation
        JOINT rFoot
        {
          OFFSET 0.73152 -45.1104 -5.12064
          CHANNELS 3 Zrotation Xrotation Yrotation
          End Site
          {
            OFFSET -1.1221 -3.69964 12.103
          }
        }
      }
    }
  }
  JOINT lButtock
  {
    OFFSET 8.77824 4.35084 1.2192
    CHANNELS 3 Zrotation Xrotation Yrotation
    JOINT lThigh
    {
      OFFSET 0 -1.70687 -2.19456
      CHANNELS 3 Zrotation Xrotation Yrotation
      JOINT lShin
      {
        OFFSET 0 -36.8199 0.73152
        CHANNELS 3 Zrotation Xrotation Yrotation
        JOINT lFoot
        {
          OFFSET -0.73152 -45.1104 -5.12064
          CHANNELS 3 Zrotation Xrotation Yrotation
          End Site
          {
            OFFSET 1.1221 -3.69964 12.103
          }
        }
      }
    }
  }
}
MOTION
Frames:	8
Frame Time:	0.00833333
64.2415 84.8839 -114.985 0.147523 -0.000239382 -0.00252447 -0.194078 -0.000752046 -0.00553945 -0.0535366 -0.00112971 -0.00927453 -2.4005e-015 -2.38542e-015 2.48481e-017 -7.16246e-015 -6.36111e-015 5.59082e-017 -0 0 0 -0 0 0 -1.19407e-015 1.16475e-018 2.48481e-016 -2.27011e-014 2.29845e-016 9.93923e-016 -4.30071e-013 1.308e-013 1.27222e-014 -4.92913e-012 -1.20787e-013 1.59028e-014 -1.16279e-011 1.96746e-014 8.90555e-014 -2.00856e-011 2.8625e-014 1.50281e-013 -1.16198e-011 2.10712e-014 7.95139e-014 7.73091 5.47488 0.417314 -1.1627e-011 2.0276e-014 9.22361e-014 2.90554 0.965183 0.102902 -1.16195e-011 2.00773e-014 9.14409e-014 10.2786 0.731801 0.0259123 -1.16313e-011 2.06736e-014 1.01778e-013 2.22167 -0.733487 -0.20892 -1.19143e-015 1.55301e-018 -2.48481e-016 -2.74142e-014 -1.49089e-016 -5.96354e-016 -4.3181e-013 -1.28614e-013 0 -4.93061e-012 1.28316e-013 5.08889e-014 -1.16293e-011 1.76185e-015 1.01778e-013 -2.00816e-011 3.18055e-015 1.75726e-013 -1.16353e-011 3.57812e-015 1.08139e-013 -7.73091 5.47488 -0.417314 -1.1628e-011 1.88845e-015 9.54166e-014 -2.90554 0.965183 -0.102902 -1.1636e-011 1.98785e-015 9.46215e-014 -10.2786 0.731801 -0.0259123 -1.16239e-011 3.57812e-015 8.5875e-014 -2.22167 -0.733487 0.20892 -2.03217e-016 0 -3.88251e-019 0.355869 -2.82713 -0.0340699 -0.00665518 -0.431856 -0.0584483 -0.502561 3.25829 0.123802 2.03217e-016 0 3.88251e-019 -0.651346 -3.58304 0.0525567 0.0044599 0.937458 0.0381194 0.504953 2.64491 -0.11159 
69.5305 83.814 -120.776 -1.02624 0.557165 -25.8599 -0.517135 1.7333 0.688698 0.129115 -1.06801 0.178687 -3.14743 -1.46606 -1.3218 3.47784 4.17193 -1.59041 -0 0 0 -0 0 0 -8.68762e-015 -8.34134e-014 -1.61027e-014 22.9479 3.8083 -0.0872633 -3.71522 -1.59882 5.89604 0.0167939 2.87901 0.402783 4.21893e-010 2.1751e-010 -6.81408e-010 7.22718e-010 3.76673e-010 -1.18199e-009 4.21898e-010 2.17513e-010 -6.81419e-010 7.73091 5.47488 0.417314 4.21894e-010 2.17513e-010 -6.81408e-010 2.90554 0.965183 0.102902 4.21899e-010 2.17512e-010 -6.81406e-010 10.2786 0.731801 0.0259123 4.2189e-010 2.17513e-010 -6.81399e-010 2.22167 -0.733487 -0.20892 -8.74077e-015 -8.34139e-014 -1.65477e-014 -22.1966 7.80731 -1.08522 3.29127 -1.34874 -5.28902 -0.00988439 2.21025 -0.309801 -2.62996e-010 -6.29696e-012 6.65439e-010 -4.49423e-010 -1.1216e-011 1.15182e-009 -2.63e-010 -6.29435e-012 6.65446e-010 -7.73091 5.47488 -0.417314 -2.62995e-010 -6.29577e-012 6.65434e-010 -2.90554 0.965183 -0.102902 -2.63003e-010 -6.29566e-012 6.65433e-010 -10.2786 0.731801 -0.0259123 -2.62991e-010 -6.29481e-012 6.65425e-010 -2.22167 -0.733487 0.20892 -2.03217e-016 0 -3.88251e-019 0.33557 -5.54091 0.394017 0.011779 9.21623 0.100027 -0.719795 -1.28445 -1.88052 2.03217e-016 0 3.88251e-019 -1.50501 -4.82696 0.304265 -0.00860066 8.37351 -0.0835868 0.610811 -1.53061 0.953039 
69.533 83.8162 -120.803 -1.79918 0.755073 -53.1992 -0.900695 3.56193 1.43257 0.329151 -2.19765 0.379885 -6.56626 -3.00676 -2.72456 7.42854 8.57265 -3.30144 -0 0 0 -0 0 0 -1.67539e-014 -1.80581e-013 -3.61819e-014 47.2229 7.81013 -0.183439 -7.28429 -3.23077 12.1394 -0.00976561 5.9391 0.834374 8.9189e-010 4.60599e-010 -1.41779e-009 1.528e-009 7.97632e-010 -2.45935e-009 8.91893e-010 4.60603e-010 -1.4178e-009 7.73091 5.47488 0.417314 8.91891e-010 4.60604e-010 -1.41779e-009 2.90554 0.965183 0.102902 8.91895e-010 4.60604e-010 -1.41779e-009 10.2786 0.731801 0.0259123 8.91889e-010 4.60605e-010 -1.41778e-009 2.22167 -0.733487 -0.20892 -1.68666e-014 -1.80583e-013 -3.65733e-014 -45.3332 16.0493 -2.30297 6.49581 -2.73299 -10.8811 0.0057994 4.56308 -0.641163 -5.20889e-010 -2.52262e-011 1.3737e-009 -8.89662e-010 -4.43622e-011 2.37768e-009 -5.20892e-010 -2.52227e-011 1.37371e-009 -7.73091 5.47488 -0.417314 -5.20887e-010 -2.52238e-011 1.3737e-009 -2.90554 0.965183 -0.102902 -5.20896e-010 -2.52237e-011 1.3737e-009 -10.2786 0.731801 -0.0259123 -5.20884e-010 -2.52236e-011 1.37369e-009 -2.22167 -0.733487 0.20892 -2.03217e-016 0 -3.88251e-019 0.356651 -8.40957 0.850615 -0.0296061 19.4152 0.280869 -1.29656 -6.07226 -4.02235 2.03217e-016 0 3.88251e-019 -2.39833 -6.14128 0.568385 0.0131492 16.233 -0.219135 0.892515 -5.94109 2.09122 
69.538 83.8193 -120.823 -2.36949 0.399832 -77.577 -1.28973 5.19834 2.08481 0.515446 -3.20162 0.555385 -9.64554 -4.38879 -3.97577 11.1418 12.4767 -4.87394 -0 0 0 -0 0 0 -2.36747e-014 -2.50243e-013 -4.88051e-014 68.8792 11.4248 -0.266492 -10.1733 -4.59367 17.7401 -0.0722286 8.63531 1.22066 1.28893e-009 6.52491e-010 -2.0444e-009 2.20832e-009 1.12996e-009 -3.54628e-009 1.28893e-009 6.52495e-010 -2.04442e-009 7.73091 5.47488 0.417314 1.28893e-009 6.52497e-010 -2.04441e-009 2.90554 0.965183 0.102902 1.28894e-009 6.52497e-010 -2.0444e-009 10.2786 0.731801 0.0259123 1.28893e-009 6.52499e-010 -2.0444e-009 2.22167 -0.733487 -0.20892 -2.38395e-014 -2.50245e-013 -4.9146e-014 -65.6356 23.3868 -3.51453 9.13593 -3.90854 -15.9006 0.0424599 6.62996 -0.934965 -7.65729e-010 -1.88944e-011 1.99611e-009 -1.3081e-009 -3.36542e-011 3.45512e-009 -7.65731e-010 -1.88902e-011 1.99612e-009 -7.73091 5.47488 -0.417314 -7.65728e-010 -1.88911e-011 1.99611e-009 -2.90554 0.965183 -0.102902 -7.65737e-010 -1.8891e-011 1.99611e-009 -10.2786 0.731801 -0.0259123 -7.65724e-010 -1.88916e-011 1.9961e-009 -2.22167 -0.733487 0.20892 -2.03217e-016 0 -3.88251e-019 0.418674 -10.9662 1.26774 -0.128581 28.5116 0.470118 -2.11737 -10.3167 -5.98445 2.03217e-016 0 3.88251e-019 -3.1793 -7.31428 0.811251 0.0668206 23.2453 -0.352969 1.29292 -9.86786 3.12735 
69.5346 83.8158 -120.796 -2.87915 -0.186487 -94.5556 -1.60114 6.35728 2.50054 0.652074 -3.89157 0.665871 -11.7332 -5.38306 -4.83839 13.7552 15.1767 -6.00201 -0 0 0 -0 0 0 -2.77318e-014 -2.51139e-013 -4.27884e-014 83.9623 14.0717 -0.312069 -12.0389 -5.47587 21.685 -0.135138 10.4235 1.48147 1.50359e-009 7.16388e-010 -2.3966e-009 2.57627e-009 1.24072e-009 -4.15712e-009 1.50359e-009 7.16393e-010 -2.39661e-009 7.73091 5.47488 0.417314 1.50359e-009 7.16395e-010 -2.39661e-009 2.90554 0.965183 0.102902 1.50359e-009 7.16395e-010 -2.3966e-009 10.2786 0.731801 0.0259123 1.50359e-009 7.16397e-010 -2.3966e-009 2.22167 -0.733487 -0.20892 -2.79297e-014 -2.51142e-013 -4.30866e-014 -79.5495 28.4965 -4.4655 10.8771 -4.69169 -19.4568 0.0787991 7.98273 -1.12929 -9.7794e-010 5.05899e-011 2.4039e-009 -1.67205e-009 8.66892e-011 4.16152e-009 -9.77941e-010 5.05943e-011 2.40391e-009 -7.73091 5.47488 -0.417314 -9.77939e-010 5.05935e-011 2.4039e-009 -2.90554 0.965183 -0.102902 -9.77947e-010 5.05935e-011 2.4039e-009 -10.2786 0.731801 -0.0259123 -9.77935e-010 5.05927e-011 2.40389e-009 -2.22167 -0.733487 0.20892 -2.03217e-016 0 -3.88251e-019 0.495658 -12.745 1.57097 -0.241458 34.8524 0.629293 -2.86435 -13.2569 -7.39278 2.03217e-016 0 3.88251e-019 -3.70212 -8.1344 0.998192 0.126491 28.14 -0.457895 1.65473 -12.5995 3.85958 
69.5325 83.8133 -120.771 -3.14305 -0.529722 -101.189 -1.76367 6.84916 2.56557 0.712669 -4.13533 0.680695 -12.3554 -5.85902 -5.15048 14.5795 16.23 -6.44021 -0 0 0 -0 0 0 -2.9302e-014 -1.28546e-013 3.59482e-015 89.823 15.4186 -0.297865 -12.7641 -5.82157 23.2933 -0.157463 10.9026 1.5524 1.46114e-009 5.6596e-010 -2.39309e-009 2.50375e-009 9.80456e-010 -4.15065e-009 1.46114e-009 5.65965e-010 -2.3931e-009 7.73091 5.47488 0.417314 1.46114e-009 5.65966e-010 -2.3931e-009 2.90554 0.965183 0.102902 1.46114e-009 5.65966e-010 -2.39309e-009 10.2786 0.731801 0.0259123 1.46114e-009 5.65967e-010 -2.39309e-009 2.22167 -0.733487 -0.20892 -2.95091e-014 -1.28547e-013 3.33547e-015 -84.8925 30.496 -4.84551 11.5853 -5.01948 -20.9578 0.0913026 8.32974 -1.17959 -1.22087e-009 2.64298e-010 2.58644e-009 -2.09143e-009 4.57284e-010 4.4791e-009 -1.22087e-009 2.64302e-010 2.58645e-009 -7.73091 5.47488 -0.417314 -1.22087e-009 2.64301e-010 2.58644e-009 -2.90554 0.965183 -0.102902 -1.22088e-009 2.643e-010 2.58644e-009 -10.2786 0.731801 -0.0259123 -1.22087e-009 2.643e-010 2.58643e-009 -2.22167 -0.733487 0.20892 -2.03217e-016 0 -3.88251e-019 0.562746 -13.4347 1.71919 -0.297846 37.3327 0.700365 -3.19477 -14.4108 -7.94949 2.03217e-016 0 3.88251e-019 -3.87031 -8.4639 1.10776 0.155797 30.0731 -0.502694 1.80991 -13.6672 4.13275 
69.536 83.8154 -120.787 -3.12774 -0.549524 -100.438 -1.81117 6.86507 2.37938 0.717705 -4.06073 0.627258 -11.916 -5.96572 -5.06723 14.0705 16.1144 -6.36492 -0 0 0 -0 0 0 -2.90233e-014 8.09584e-014 7.81317e-014 89.0936 15.8343 -0.240131 -12.7394 -5.8228 23.2239 -0.143299 10.4488 1.48604 1.23512e-009 2.64115e-010 -2.13415e-009 2.11676e-009 4.58083e-010 -3.70091e-009 1.23512e-009 2.6412e-010 -2.13416e-009 7.73091 5.47488 0.417314 1.23512e-009 2.64119e-010 -2.13416e-009 2.90554 0.965183 0.102902 1.23513e-009 2.64119e-010 -2.13415e-009 10.2786 0.731801 0.0259123 1.23512e-009 2.64119e-010 -2.13415e-009 2.22167 -0.733487 -0.20892 -2.92225e-014 8.09593e-014 7.79081e-014 -84.2134 30.2829 -4.75484 11.6068 -5.04887 -20.9844 0.08264 7.95876 -1.12624 -1.48211e-009 5.78365e-010 2.6045e-009 -2.54413e-009 1.00202e-009 4.51272e-009 -1.48211e-009 5.78367e-010 2.60451e-009 -7.73091 5.47488 -0.417314 -1.48211e-009 5.78366e-010 2.6045e-009 -2.90554 0.965183 -0.102902 -1.48212e-009 5.78365e-010 2.6045e-009 -10.2786 0.731801 -0.0259123 -1.48211e-009 5.78366e-010 2.6045e-009 -2.22167 -0.733487 0.20892 -2.03217e-016 0 -3.88251e-019 0.612436 -13.3472 1.75315 -0.291259 37.0561 0.692253 -3.15177 -14.3013 -7.87148 2.03217e-016 0 3.88251e-019 -3.78812 -8.4429 1.16146 0.152869 29.8906 -0.498107 1.78114 -13.5496 4.06592 
69.5447 83.8198 -120.789 -2.99504 -0.379334 -96.7391 -1.81324 6.69148 2.11588 0.700573 -3.86937 0.553132 -11.0726 -5.89543 -4.82517 13.0523 15.511 -6.0803 -0 0 0 -0 0 0 -2.55694e-014 2.81677e-013 1.41097e-013 85.7408 15.7898 -0.171335 -12.4074 -5.68083 22.4648 -0.118777 9.68416 1.37452 9.38509e-010 -4.20838e-011 -1.72747e-009 1.60901e-009 -7.18424e-011 -2.9951e-009 9.38512e-010 -4.20782e-011 -1.72748e-009 7.73091 5.47488 0.417314 9.38509e-010 -4.20816e-011 -1.72748e-009 2.90554 0.965183 0.102902 9.38518e-010 -4.20815e-011 -1.72748e-009 10.2786 0.731801 0.0259123 9.38509e-010 -4.20823e-011 -1.72747e-009 2.22167 -0.733487 -0.20892 -2.57498e-014 2.8168e-013 1.40897e-013 -81.1191 29.2127 -4.49287 11.3458 -4.95345 -20.4001 0.0673393 7.31102 -1.03327 -1.62842e-009 8.4328e-010 2.43641e-009 -2.7994e-009 1.4616e-009 4.22377e-009 -1.62843e-009 8.43281e-010 2.43642e-009 -7.73091 5.47488 -0.417314 -1.62842e-009 8.4328e-010 2.43642e-009 -2.90554 0.965183 -0.102902 -1.62843e-009 8.43278e-010 2.43642e-009 -10.2786 0.731801 -0.0259123 -1.62842e-009 8.4328e-010 2.43642e-009 -2.22167 -0.733487 0.20892 -2.03217e-016 0 -3.88251e-019 0.639956 -12.9506 1.71855 -0.259625 35.6816 0.652564 -2.95611 -13.6889 -7.52644 2.03217e-016 0 3.88251e-019 -3.61182 -8.27664 1.1887 0.136955 28.8578 -0.473636 1.67716 -12.9601 3.85451 
